<svg width="60" height="60" viewBox="0 0 60 60" fill="none" xmlns="http://www.w3.org/2000/svg">
<circle cx="30" cy="30" r="30" fill="#FFDAD3"/>
<g clip-path="url(#clip0_6530_7466)">
<path d="M40.489 38.0268V43.9831H19.5223V31.9973H19.8823C22.3625 31.9973 24.8433 31.9979 27.3235 31.996C27.4885 31.9954 27.6579 31.9966 27.8179 31.9616C28.5505 31.801 29.0018 31.2028 29.0018 30.3971C29.003 26.3834 29.0024 22.3698 29.0024 18.3568V18.0149H34.5048V24.0019H40.5021V30.9815H41.481C41.4866 30.9196 41.4941 30.8728 41.4941 30.8259C41.4953 28.3743 41.4972 25.9234 41.4878 23.4725C41.4878 23.3562 41.4097 23.2137 41.3241 23.1274C39.3477 21.1403 37.3644 19.1607 35.388 17.1735C35.2498 17.0348 35.1098 16.9935 34.9235 16.9941C33.0584 16.9991 31.1932 16.9973 29.3281 16.9973H29.0024C29.0024 16.8691 29.003 16.7822 29.0024 16.6954C28.9974 15.5896 28.4061 15.0008 27.2985 15.0008C23.7539 15.0001 20.2092 15.0001 16.6645 15.0008C15.6019 15.0008 15.0019 15.6058 15.0013 16.6754V22.0367C15.0013 24.8295 15.0031 27.6224 15 30.4152C14.9994 30.9028 15.1563 31.3153 15.5263 31.6354C15.8188 31.8879 16.162 32.0023 16.5501 31.9985C17.1921 31.9929 17.8334 31.9973 18.5059 31.9973V32.3748C18.5059 36.4566 18.5059 40.5383 18.5065 44.6201C18.5065 44.747 18.5134 44.8739 18.5172 45.0001H41.4847C41.4878 44.9614 41.4947 44.9226 41.4947 44.8839C41.4953 42.6674 41.4953 40.4508 41.4947 38.2337C41.4947 38.168 41.4853 38.1018 41.4797 38.0268H40.489ZM35.5173 18.8444C36.8856 20.2102 38.2751 21.5972 39.6521 22.9724H35.5173V18.8444ZM16.6845 30.9984C16.1588 30.9984 16.0001 30.8415 16.0001 30.3221C15.9995 28.0474 15.9995 25.7734 15.9995 23.4987V16.7041C15.9995 16.1484 16.1513 15.999 16.7164 15.999C20.2404 15.9984 23.7645 15.9984 27.2879 15.999C27.8504 15.999 28.0042 16.1503 28.0042 16.7072V30.2952C28.0042 30.8421 27.8504 30.9984 27.3148 30.9984C23.7714 30.999 20.2279 30.999 16.6845 30.9984Z" fill="#081733"/>
<path d="M44.3133 30.77C43.6833 30.3687 42.9145 30.4681 42.34 31.042C40.1374 33.2422 37.9359 35.4438 35.7351 37.6459C35.0869 38.2947 34.34 38.8767 33.8268 39.6199C33.3024 40.3781 33.0099 41.2964 32.6155 42.1446C32.6117 42.1533 32.6061 42.1615 32.6017 42.1702C32.483 42.4053 32.4467 42.6403 32.6486 42.8466C32.8505 43.0516 33.0774 43.0185 33.3212 42.9041C34.0787 42.5471 34.8457 42.209 35.6013 41.8471C35.7989 41.752 35.992 41.6227 36.1464 41.4683C38.836 38.7886 41.5168 36.1001 44.2058 33.4204C44.5546 33.0728 44.8821 32.7228 44.9996 32.2271V31.8164C44.8759 31.3989 44.7009 31.0176 44.3133 30.77ZM41.4681 34.7412C39.5542 36.6508 37.6309 38.551 35.7401 40.4831C35.2657 40.9682 34.6575 41.1413 34.0818 41.4258C34.3469 40.8663 34.5006 40.2737 34.9669 39.8149C36.9221 37.8922 38.8516 35.9432 40.7912 34.0042C40.8593 33.9367 40.9305 33.8723 41.0124 33.7948C41.2587 34.0373 41.4812 34.2555 41.7587 34.5286C41.6562 34.6024 41.55 34.6599 41.4681 34.7412ZM42.4157 33.7429C42.2138 33.521 42 33.2866 41.77 33.0335C41.85 32.9484 41.9481 32.8447 42.0363 32.7509C42.2744 32.9947 42.495 33.221 42.7219 33.4535C42.6476 33.5241 42.5382 33.6273 42.4157 33.7429ZM43.4989 32.6909C43.2639 32.4528 43.042 32.2277 42.8194 32.0021C43.2145 31.502 43.5458 31.3864 43.8302 31.657C44.1164 31.9289 44.0252 32.219 43.4989 32.6909Z" fill="#081733"/>
<path d="M26.4756 32.9966C23.7129 33.0129 21.4927 35.265 21.5039 38.0391C21.5152 40.782 23.7754 43.016 26.5256 43.0029C29.2715 42.9904 31.5129 40.7332 31.5035 37.9904C31.4935 35.23 29.2283 32.9804 26.4756 32.9966ZM26.5062 42.004C24.3161 42.009 22.5115 40.2169 22.5015 38.0279C22.4922 35.8151 24.2704 34.0124 26.4794 33.9961C28.6814 33.9792 30.4878 35.772 30.5003 37.9854C30.5128 40.1844 28.7089 41.9996 26.5062 42.004Z" fill="#1B1B1B"/>
<path d="M38.9867 29.5199H33.0068V30.4794H38.9867V29.5199Z" fill="#081733"/>
<path d="M38.9862 27.5121H33.0176V28.4798H38.9862V27.5121Z" fill="#1B1B1B"/>
<path d="M38.9857 25.5182H33.0127V26.4727H38.9857V25.5182Z" fill="#081733"/>
<path d="M38.9867 31.5276H33.0137V32.4884H38.9867V31.5276Z" fill="#081733"/>
<path d="M31.9827 29.5168H31.0107V30.4775H31.9827V29.5168Z" fill="#1B1B1B"/>
<path d="M31.9802 31.5251H31.0107V32.4896H31.9802V31.5251Z" fill="#081733"/>
<path d="M31.9854 25.5113H31.0166V26.4752H31.9854V25.5113Z" fill="#1B1B1B"/>
<path d="M31.9751 27.5203H31.0156V28.4766H31.9751V27.5203Z" fill="#081733"/>
<path d="M16.5205 16.5245V19.9756H27.4714V16.5245H16.5205ZM26.4713 18.9773H17.5218V17.524H26.4713V18.9773Z" fill="#081733"/>
<path d="M23.4983 28.531C23.4877 27.9441 23.1058 27.5315 22.5207 27.5009C22.1701 27.4828 21.8169 27.4815 21.4669 27.5022C20.895 27.5359 20.5155 27.946 20.5062 28.5167C20.5005 28.8386 20.5005 29.1605 20.5062 29.4824C20.5155 30.0569 20.8912 30.4607 21.4669 30.4938C21.8169 30.5144 22.1701 30.5132 22.5201 30.495C23.1108 30.4638 23.4877 30.0581 23.4983 29.468C23.5014 29.3124 23.4989 29.1561 23.4989 28.9998C23.4989 28.8436 23.5014 28.6873 23.4983 28.531ZM22.4857 29.473H21.5231V28.5123H22.4857V29.473Z" fill="#1B1B1B"/>
<path d="M27.0035 28.5311C26.9879 27.931 26.591 27.5234 25.9916 27.4991C25.6603 27.4859 25.3278 27.4841 24.9965 27.4997C24.4071 27.5278 24.0264 27.926 24.0064 28.5167C24.0045 28.5748 24.0039 28.633 24.0039 28.6917C24.0039 28.7898 24.0058 28.8874 24.0058 28.9849C24.0052 29.073 24.0045 29.1605 24.0045 29.2487C24.0045 29.3074 24.0045 29.3655 24.0058 29.4243C24.0164 30.0875 24.3977 30.4819 25.0552 30.5001C25.3671 30.5088 25.6803 30.5113 25.9922 30.4976C26.5972 30.4707 26.9879 30.0706 27.0035 29.4681C27.0117 29.1555 27.0117 28.843 27.0035 28.5311ZM25.9891 29.4793H25.0284V28.5142H25.9891V29.4793Z" fill="#1B1B1B"/>
<path d="M19.9956 29.1599C19.9956 29.1105 19.9949 29.0611 19.9949 29.0117C19.9956 28.9267 19.9962 28.8417 19.9962 28.7567C19.9962 28.7142 19.9962 28.6717 19.9956 28.6292C19.9956 28.6004 19.9956 28.5717 19.9949 28.5429C19.9812 27.9072 19.5855 27.5115 18.9436 27.4972C18.6317 27.4897 18.3186 27.4859 18.0066 27.499C17.4072 27.5247 17.0109 27.9347 16.9991 28.5335C16.9928 28.8461 16.9922 29.1586 16.9991 29.4705C17.0116 30.0587 17.3953 30.4644 17.9829 30.495C18.3236 30.5132 18.6667 30.5132 19.0074 30.4963C19.6037 30.4675 19.9781 30.0744 19.9943 29.4799C19.9974 29.3737 19.9962 29.2668 19.9956 29.1599ZM18.9799 29.4805H18.0135V28.5185H18.9799V29.4805Z" fill="#1B1B1B"/>
<path d="M23.4947 21.4477C23.4753 20.932 23.0684 20.5263 22.554 20.5082C22.184 20.4951 21.8121 20.4944 21.4421 20.5082C20.9289 20.5276 20.5301 20.9376 20.5076 21.4546C20.5001 21.6396 20.5063 21.8252 20.5063 22.0109C20.5063 22.0109 20.5057 22.0109 20.5051 22.0109C20.5051 22.1671 20.5026 22.3234 20.5057 22.4791C20.5176 23.0766 20.9258 23.4873 21.5214 23.4973C21.8627 23.5023 22.2052 23.5073 22.5459 23.4948C23.0609 23.4754 23.4735 23.0723 23.4947 22.5603C23.5097 22.1903 23.5091 21.8184 23.4947 21.4477ZM22.479 22.4803H21.5208V21.5083H22.479V22.4803Z" fill="#1B1B1B"/>
<path d="M19.9953 21.9983C19.9953 21.8427 19.999 21.6864 19.9946 21.5302C19.979 20.9076 19.5808 20.5119 18.9602 20.5044C18.6383 20.5006 18.3157 20.4981 17.9938 20.5057C17.4457 20.5182 17.0288 20.9132 17.0031 21.4601C16.9863 21.8202 16.9856 22.1827 17.0031 22.5428C17.03 23.0885 17.4488 23.4835 17.997 23.496C18.3289 23.5035 18.6608 23.5035 18.992 23.4966C19.5621 23.4854 19.9684 23.0903 19.9928 22.5253C20.0003 22.3503 19.994 22.174 19.994 21.9983C19.9946 21.9983 19.9946 21.9983 19.9953 21.9983ZM18.9752 22.4859H18.0132V21.5264H18.9752V22.4859Z" fill="#1B1B1B"/>
<path d="M27.0027 21.5102C26.9833 20.9139 26.5683 20.5144 25.9708 20.5044C25.8145 20.5013 25.6582 20.5038 25.5026 20.5038C25.3463 20.5038 25.1901 20.5013 25.0338 20.5044C24.4275 20.5144 24.0262 20.9039 24.0087 21.5089C23.9987 21.8409 23.9981 22.1728 24.0087 22.5047C24.0281 23.091 24.4331 23.4867 25.0175 23.4973C25.3401 23.5029 25.662 23.5029 25.9839 23.4967C26.5633 23.4867 26.979 23.086 27.0021 22.5059C27.0152 22.1746 27.014 21.8421 27.0027 21.5102ZM25.9933 22.4822H25.0219V21.5252H25.9933V22.4822Z" fill="#1B1B1B"/>
<path d="M23.4942 24.9475C23.4742 24.4405 23.0879 24.048 22.5822 24.013C22.3878 23.9992 22.1922 24.0105 21.9965 24.0105V24.0049C21.8409 24.0049 21.6846 24.0011 21.5284 24.0055C20.9046 24.0236 20.5127 24.4205 20.5052 25.0431C20.5014 25.3556 20.5002 25.6682 20.5058 25.9801C20.5152 26.5614 20.9127 26.9777 21.4921 27.0009C21.8334 27.0146 22.1759 27.0152 22.5166 27.0002C23.0835 26.9752 23.4842 26.5627 23.4967 26.0014C23.5042 25.6501 23.5079 25.2981 23.4942 24.9475ZM22.4847 25.9895H21.5259V25.0256H22.4847V25.9895Z" fill="#1B1B1B"/>
<path d="M19.9851 24.9006C19.9614 24.4337 19.5863 24.0586 19.1213 24.0174C18.9175 23.9992 18.7119 24.0142 18.5069 24.0142V24.0049C18.3506 24.0049 18.1943 24.0011 18.0381 24.0055C17.403 24.0224 17.0067 24.4237 16.9986 25.0619C16.9942 25.3744 16.9905 25.6869 17.0005 25.9989C17.0174 26.552 17.4037 26.9658 17.9518 26.9971C18.3212 27.0184 18.6944 27.0196 19.0638 26.9959C19.5701 26.9633 19.9595 26.5839 19.9845 26.1001C20.0057 25.7013 20.0051 25.2994 19.9851 24.9006ZM18.9713 25.9851H18.0218V25.015H18.9713V25.9851Z" fill="#1B1B1B"/>
<path d="M27.0017 24.9906C26.9785 24.4199 26.5797 24.0273 26.0084 24.0086C25.6672 23.9967 25.3253 23.9961 24.984 24.0086C24.4083 24.0292 24.0289 24.4199 24.007 25.0006C24.0045 25.0625 24.0039 25.1244 24.0039 25.1862C24.0039 25.2906 24.0064 25.3944 24.0058 25.4982C24.0052 25.5775 24.0045 25.6576 24.0045 25.7376C24.0045 25.7776 24.0045 25.8169 24.0052 25.857C24.0052 25.8838 24.0052 25.9107 24.0058 25.9376C24.0189 26.5927 24.4164 26.9933 25.0671 27.0033C25.3796 27.0083 25.6922 27.0133 26.0041 27.0015C26.5704 26.979 26.976 26.5802 27.001 26.0151C27.016 25.6744 27.0154 25.3319 27.0017 24.9906ZM25.9891 25.9876H25.0227V25.0268H25.9891V25.9876Z" fill="#081733"/>
<path d="M28.4908 38.9836C28.4995 39.5562 28.1776 39.9324 27.7063 40.1925C27.4963 40.3087 27.2613 40.3794 27.0181 40.4788C27.0094 40.6307 27 40.8026 26.9894 40.9888H26.0218C26.0118 40.8113 26.0024 40.6413 25.9931 40.4763C24.9123 40.07 24.5748 39.7443 24.5079 39.0073C24.8067 39.0073 25.103 39.0042 25.3993 39.0105C25.4399 39.0111 25.4868 39.0461 25.5186 39.0773C25.9656 39.5155 26.5994 39.638 27.1469 39.3568C27.2857 39.2849 27.4663 39.1161 27.4638 38.9955C27.4613 38.8717 27.2788 38.6985 27.1375 38.6429C26.9081 38.5529 26.6487 38.5198 26.3993 38.501C25.9431 38.4673 25.5143 38.3635 25.1349 38.0997C24.2898 37.5134 24.2804 36.4883 25.1311 35.9119C25.3843 35.74 25.6862 35.6413 25.9949 35.495C26.0012 35.3713 26.0087 35.2075 26.0181 35.02H26.9894C26.9988 35.1962 27.0088 35.3669 27.0188 35.5413C27.7638 35.7525 28.3876 36.0788 28.5064 36.9971C28.1782 36.9971 27.9063 37.0021 27.6351 36.9927C27.5794 36.9908 27.5126 36.9471 27.4732 36.9033C27.0613 36.4458 26.1662 36.3601 25.683 36.737C25.4449 36.9227 25.4311 37.1265 25.703 37.2627C25.9556 37.3896 26.2525 37.4284 26.5312 37.4996C26.9144 37.5978 27.3213 37.6403 27.6776 37.7978C28.167 38.0141 28.4826 38.4135 28.4908 38.9836Z" fill="#081733"/>
</g>
<defs>
<clipPath id="clip0_6530_7466">
<rect width="30" height="30" fill="white" transform="translate(15 15)"/>
</clipPath>
</defs>
</svg>
